Coordinates
version=1
nRows=10
nColumns=63
inDegrees=yes

Units are S.I. units (second, meters, Newtons, ...)
If the header above contains a line with 'inDegrees', this indicates whether rotational values are in degrees (yes) or radians (no).

endheader
time	pelvis_tilt	pelvis_list	pelvis_rotation	pelvis_tx	pelvis_ty	pelvis_tz	hip_flexion_r	hip_adduction_r	hip_rotation_r	knee_angle_r	knee_angle_r_beta	ankle_angle_r	subtalar_angle_r	mtp_angle_r	hip_flexion_l	hip_adduction_l	hip_rotation_l	knee_angle_l	knee_angle_l_beta	ankle_angle_l	subtalar_angle_l	mtp_angle_l	L5_S1_Flex_Ext	L5_S1_Lat_Bending	L5_S1_axial_rotation	L4_L5_Flex_Ext	L4_L5_Lat_Bending	L4_L5_axial_rotation	L3_L4_Flex_Ext	L3_L4_Lat_Bending	L3_L4_axial_rotation	L2_L3_Flex_Ext	L2_L3_Lat_Bending	L2_L3_axial_rotation	L1_L2_Flex_Ext	L1_L2_Lat_Bending	L1_L2_axial_rotation	L1_T12_Flex_Ext	L1_T12_Lat_Bending	L1_T12_axial_rotation	Abs_r3	Abs_r2	Abs_r1	Abs_t1	Abs_t2	neck_flexion	neck_bending	neck_rotation	arm_flex_r	arm_add_r	arm_rot_r	elbow_flex_r	pro_sup_r	wrist_flex_r	wrist_dev_r	arm_flex_l	arm_add_l	arm_rot_l	elbow_flex_l	pro_sup_l	wrist_flex_l	wrist_dev_l
2.694915	-0.469717	-5.540961	83.511804	0.143707	0.907757	0.601296	13.056653	-0.694341	-2.671173	24.380593	0.425522	33.577457	1.553299	0.000000	10.641281	-0.366284	-5.161060	16.665650	0.290870	35.395851	3.806213	0.000000	0.052384	0.176681	-0.147169	0.097281	0.234985	-0.156367	0.086061	0.429581	-0.156367	0.059869	0.429581	-0.128772	0.048643	0.360287	-0.119574	0.029932	0.273678	-0.110376	0.374170	1.998646	-0.818507	0.000000	0.000000	24.059186	0.964476	-14.371408	5.634331	-9.270628	119.051275	6.784906	3.411775	-5.438937	-14.353584	8.150628	-5.163333	108.158028	6.676851	6.631691	-6.615219	-10.441368
2.711864	-0.590141	-5.667241	83.338884	0.143737	0.907503	0.602195	13.335218	-0.797136	-2.545557	24.490015	0.427431	33.648072	1.609212	0.000000	10.840798	-0.265832	-5.251463	16.682874	0.291171	35.344850	3.737246	0.000000	0.048170	0.156873	-0.083430	0.089457	0.208641	-0.088644	0.079139	0.381421	-0.088644	0.055054	0.381421	-0.073001	0.044731	0.319895	-0.067787	0.027524	0.242996	-0.062572	0.344074	1.774577	-0.464011	0.000000	0.000000	24.187907	1.143341	-14.876676	5.631834	-9.225896	119.013345	6.752125	3.285353	-5.441551	-14.575953	8.148307	-5.133514	109.486195	6.303967	5.966529	-6.354081	-11.145182
2.728814	-0.729083	-5.763417	83.148570	0.143868	0.907343	0.602939	13.568508	-0.909857	-2.392860	24.575096	0.428916	33.762904	1.693249	0.000000	10.984679	-0.159196	-5.435179	16.682947	0.291172	35.293317	3.765716	0.000000	0.046050	0.135010	-0.025051	0.085519	0.179564	-0.026617	0.075655	0.328264	-0.026617	0.052630	0.328264	-0.021920	0.042762	0.275313	-0.020354	0.026313	0.209131	-0.018788	0.328928	1.527265	-0.139327	0.000000	0.000000	24.193020	1.244025	-15.307424	5.628921	-9.193467	118.478278	6.817734	3.251197	-5.357203	-14.756073	8.100215	-5.125060	110.733426	5.943389	5.394506	-6.116295	-11.826972
2.745763	-0.884536	-5.828658	82.959115	0.144067	0.907274	0.603560	13.760338	-1.038347	-2.240375	24.641890	0.430082	33.936113	1.834500	0.000000	11.084855	-0.038389	-5.646319	16.681460	0.291146	35.232056	3.817036	0.000000	0.044754	0.110973	0.028083	0.083113	0.147594	0.029838	0.073527	0.269820	0.029838	0.051150	0.269820	0.024573	0.041559	0.226297	0.022817	0.025573	0.171898	0.021062	0.319675	1.255351	0.156189	0.000000	0.000000	24.117728	1.290394	-15.676526	5.627848	-9.140732	117.822302	6.886573	3.221067	-5.209680	-14.894877	8.051653	-5.142313	112.024614	5.625967	4.802838	-5.917001	-12.467622
2.762712	-1.040857	-5.868017	82.793025	0.144286	0.907294	0.604067	13.912823	-1.172741	-2.110887	24.689636	0.430915	34.168035	2.038573	0.000000	11.146798	0.092526	-5.816498	16.676480	0.291059	35.153353	3.825523	0.000000	0.044308	0.086431	0.071427	0.082284	0.114953	0.075891	0.072793	0.210148	0.075891	0.050639	0.210148	0.062498	0.041144	0.176249	0.058034	0.025317	0.133881	0.053570	0.316486	0.977721	0.397255	0.000000	0.000000	23.997883	1.298272	-15.984041	5.644020	-9.080501	117.058898	6.986789	3.229607	-5.028858	-14.994225	8.001825	-5.169292	113.344781	5.324509	4.253657	-5.735150	-12.997672
2.779661	-1.191856	-5.883258	82.668109	0.144491	0.907404	0.604468	14.025797	-1.313093	-2.030678	24.719677	0.431440	34.449130	2.310809	0.000000	11.180395	0.221933	-5.990357	16.681745	0.291151	35.069971	3.864170	0.000000	0.044579	0.061851	0.102205	0.082787	0.082262	0.108593	0.073238	0.150384	0.108593	0.050949	0.150384	0.089429	0.041396	0.126126	0.083042	0.025472	0.095807	0.076654	0.318421	0.699670	0.568433	0.000000	0.000000	23.858744	1.283928	-16.242964	5.691386	-9.006303	116.370003	7.096846	3.275868	-4.846347	-15.051749	7.951128	-5.208048	114.601395	5.050024	3.785449	-5.578794	-13.391335
2.796610	-1.330608	-5.874143	82.588239	0.144672	0.907614	0.604749	14.093537	-1.448023	-1.977788	24.728360	0.431591	34.746127	2.600208	0.000000	11.184650	0.346544	-6.140783	16.697902	0.291433	34.977913	3.904626	0.000000	0.045227	0.037797	0.120749	0.083991	0.050270	0.128296	0.074304	0.091899	0.128296	0.051690	0.091899	0.105656	0.041998	0.077075	0.098109	0.025843	0.058547	0.090562	0.323054	0.427564	0.671571	0.000000	0.000000	23.716679	1.263965	-16.473653	5.771292	-8.917277	115.839736	7.203085	3.329361	-4.656351	-15.070714	7.900144	-5.264214	115.675025	4.827086	3.430394	-5.451864	-13.651545
2.813559	-1.455426	-5.845830	82.546235	0.144825	0.907920	0.604882	14.115048	-1.577831	-1.962422	24.709750	0.431266	35.031666	2.910950	0.000000	11.155938	0.469733	-6.241596	16.709411	0.291634	34.865258	3.903077	0.000000	0.047053	0.014511	0.129381	0.087382	0.019300	0.137467	0.077303	0.035283	0.137467	0.053777	0.035283	0.113208	0.043693	0.029592	0.105122	0.026886	0.022478	0.097036	0.336093	0.164157	0.719577	0.000000	0.000000	23.579466	1.248634	-16.714762	5.874902	-8.825170	115.402399	7.324124	3.441025	-4.481802	-15.046704	7.837867	-5.341861	116.389190	4.677012	3.225631	-5.364007	-13.810303
2.830508	-1.562577	-5.804227	82.553464	0.144936	0.908314	0.604872	14.094830	-1.702761	-2.008297	24.667166	0.430523	35.277732	3.236607	0.000000	11.102117	0.573838	-6.378770	16.718747	0.291797	34.755074	3.998694	0.000000	0.050482	-0.007664	0.128450	0.093750	-0.010193	0.136478	0.082936	-0.018634	0.136478	0.057696	-0.018634	0.112393	0.046877	-0.015628	0.104365	0.028845	-0.011871	0.096337	0.360586	-0.086694	0.714398	0.000000	0.000000	23.441638	1.228210	-17.028455	5.983245	-8.737951	114.909776	7.476295	3.630469	-4.329826	-14.999555	7.763313	-5.444634	116.612434	4.616714	3.249295	-5.329085	-13.910574
2.847458	-1.645139	-5.745685	82.601013	0.145020	0.908801	0.604714	14.023432	-1.808801	-2.088980	24.593398	0.429236	35.455633	3.525198	0.000000	11.014315	0.662073	-6.476319	16.715167	0.291735	34.627585	4.085830	0.000000	0.054438	-0.027889	0.121170	0.101097	-0.037092	0.128743	0.089437	-0.067809	0.128743	0.062217	-0.067809	0.106024	0.050551	-0.056871	0.098451	0.031106	-0.043200	0.090878	0.388847	-0.315485	0.673913	0.000000	0.000000	23.292762	1.217643	-17.438664	6.084471	-8.655889	114.429231	7.634461	3.857433	-4.178727	-14.939509	7.684714	-5.569540	116.340621	4.660012	3.456920	-5.373620	-13.977228
